<svg xmlns="http://www.w3.org/2000/svg" viewBox="0 -0.5 24 24" shape-rendering="crispEdges">
<metadata>Made with Pixels to Svg https://codepen.io/shshaw/pen/XbxvNj</metadata>
<path stroke="#b8f818" d="M11 0h2M9 1h6M7 2h10M5 3h14M3 4h18M1 5h22M1 6h22M3 7h18M5 8h14M7 9h10M9 10h6M11 11h2" />
<path stroke="#00a844" d="M0 6h1M0 7h3M0 8h5M0 9h7M0 10h9M0 11h11M0 12h12M0 13h12M0 14h12M0 15h12M0 16h12M0 17h12M1 18h11M3 19h9M5 20h7M7 21h5M9 22h3M11 23h1" />
<path stroke="#006800" d="M23 6h1M21 7h3M19 8h5M17 9h7M15 10h9M13 11h11M12 12h12M12 13h12M12 14h12M12 15h12M12 16h12M12 17h12M12 18h11M12 19h9M12 20h7M12 21h5M12 22h3M12 23h1" />
</svg>