<svg xmlns="http://www.w3.org/2000/svg" viewBox="0 -0.5 16 16" shape-rendering="crispEdges">
<metadata>Made with Pixels to Svg https://codepen.io/shshaw/pen/XbxvNj</metadata>
<path stroke="#000000" d="M4 0h1M11 0h1M3 1h1M5 1h1M10 1h1M12 1h1M3 2h1M6 2h4M12 2h1M4 3h1M11 3h1M4 4h1M11 4h1M4 5h1M11 5h1M4 6h8M3 7h1M12 7h1M3 8h1M12 8h1M3 9h1M7 9h2M12 9h1M3 10h1M6 10h1M8 10h1M12 10h1M3 11h1M5 11h2M8 11h1M12 11h1M3 12h1M6 12h2M9 12h1M12 12h1M3 13h1M6 13h2M9 13h1M12 13h1M3 14h1M6 14h2M9 14h1M12 14h1M4 15h2M8 15h2M12 15h1" />
<path stroke="#ff5c00" d="M4 1h1M11 1h1M4 2h2M10 2h2M5 3h1M7 3h2M10 3h1M5 4h1M7 4h2M10 4h1M5 5h6M4 7h8M4 8h8M4 9h3M9 9h3M4 10h2M9 10h3M4 11h1M9 11h3M4 12h2M10 12h2M4 13h1M10 13h2M10 14h2" />
<path stroke="#a00c00" d="M6 3h1M9 3h1M6 4h1M9 4h1" />
<path stroke="#ffa139" d="M7 10h1M7 11h1M8 12h1M8 13h1M8 14h1" />
<path stroke="#ffe1a7" d="M5 13h1M4 14h2M10 15h2" />
</svg>