<svg xmlns="http://www.w3.org/2000/svg" viewBox="0 -0.5 16 16" shape-rendering="crispEdges">
<metadata>Made with Pixels to Svg https://codepen.io/shshaw/pen/XbxvNj</metadata>
<path stroke="#000000" d="M4 0h1M11 0h1M3 1h1M5 1h1M10 1h1M12 1h1M3 2h1M6 2h4M12 2h1M4 3h1M11 3h1M4 4h3M9 4h3M4 5h1M11 5h1M4 6h2M7 6h2M10 6h2M4 7h2M10 7h1M12 7h1M3 8h1M5 8h2M9 8h2M12 8h1M3 9h1M12 9h1M3 10h1M12 10h1M3 11h1M7 11h2M12 11h1M3 12h1M6 12h2M9 12h1M12 12h1M4 13h1M7 13h1M9 13h1M12 13h1M4 14h2M7 14h1M10 14h1M12 14h1M4 15h3M9 15h1M13 15h1" />
<path stroke="#ff5c00" d="M4 1h1M11 1h1M4 2h2M10 2h2M5 3h1M7 3h2M10 3h1M7 4h2M7 5h2M11 7h1M4 8h1M11 8h1M4 9h3M9 9h3M4 10h2M10 10h2M4 11h2M10 11h2M4 12h2M10 12h2M5 13h2M10 13h2M11 14h1" />
<path stroke="#a00c00" d="M6 3h1M9 3h1M6 5h1M9 5h1M7 7h2" />
<path stroke="#ffb900" d="M5 5h1M10 5h1" />
<path stroke="#ffa139" d="M6 6h1M9 6h1M7 9h2M6 10h4M6 11h1M9 11h1" />
<path stroke="#ffe1a7" d="M6 7h1M9 7h1M7 8h2M6 14h1M10 15h3" />
</svg>