<svg xmlns="http://www.w3.org/2000/svg" viewBox="0 -0.5 16 16" shape-rendering="crispEdges">
<metadata>Made with Pixels to Svg https://codepen.io/shshaw/pen/XbxvNj</metadata>
<path stroke="#000000" d="M5 0h1M4 1h1M6 1h1M3 2h1M6 2h1M2 3h1M5 3h1M1 4h3M6 4h1M1 5h1M6 5h1M0 6h1M6 6h1M0 7h1M7 7h7M1 8h2M13 8h2M3 9h1M15 9h1M3 10h1M13 10h1M15 10h1M3 11h1M13 11h1M15 11h1M3 12h1M7 12h4M13 12h1M15 12h1M3 13h2M7 13h1M10 13h1M13 13h2M2 14h1M5 14h1M7 14h1M10 14h1M12 14h1M14 14h1M1 15h1M4 15h1M7 15h1M9 15h1M12 15h1M14 15h1" />
<path stroke="#ff5c00" d="M5 1h1M4 2h2M4 3h1M4 4h2M4 5h2M4 6h2M3 7h4M4 8h9M4 9h11M4 10h9M14 10h1M4 11h2M10 11h3M14 11h1M4 12h3M11 12h2M14 12h1M5 13h2M11 13h2M6 14h1M11 14h1" />
<path stroke="#a00c00" d="M3 3h1M2 5h1M1 7h1M3 14h2M13 14h1" />
<path stroke="#ffb900" d="M3 5h1M2 15h2M13 15h1" />
<path stroke="#ffe1a7" d="M1 6h1M2 7h1M5 15h2M10 15h2" />
<path stroke="#ffa139" d="M2 6h2M3 8h1M6 11h4" />
</svg>