<svg xmlns="http://www.w3.org/2000/svg" viewBox="0 -0.5 24 24" shape-rendering="crispEdges">
<metadata>Made with Pixels to Svg https://codepen.io/shshaw/pen/XbxvNj</metadata>
<path stroke="#bcbcbc" d="M11 0h1M10 1h1M12 1h1M14 1h1M7 2h1M9 2h1M11 2h1M13 2h1M15 2h1M6 3h1M8 3h1M10 3h1M12 3h1M14 3h1M16 3h1M18 3h1M3 4h1M5 4h1M7 4h1M9 4h1M11 4h1M13 4h1M15 4h1M17 4h1M19 4h1M2 5h1M4 5h1M6 5h1M8 5h1M10 5h1M12 5h1M14 5h1M16 5h1M18 5h1M20 5h1M22 5h1M0 6h2M3 6h1M5 6h1M7 6h1M9 6h1M11 6h1M13 6h1M15 6h1M17 6h1M19 6h1M21 6h1M1 7h1M4 7h1M6 7h1M8 7h1M10 7h1M12 7h1M14 7h1M16 7h1M18 7h1M20 7h1M0 8h1M2 8h1M4 8h2M7 8h1M9 8h1M11 8h1M13 8h1M15 8h1M17 8h1M1 9h1M3 9h1M5 9h1M8 9h1M10 9h1M12 9h1M14 9h1M16 9h1M0 10h1M2 10h1M4 10h1M6 10h1M8 10h2M11 10h1M13 10h1M1 11h1M3 11h1M5 11h1M7 11h1M9 11h1M12 11h1M0 12h1M2 12h1M4 12h1M6 12h1M8 12h1M10 12h1M1 13h1M3 13h1M5 13h1M7 13h1M9 13h1M11 13h1M0 14h1M2 14h1M4 14h1M6 14h1M8 14h1M10 14h1M1 15h1M3 15h1M5 15h1M7 15h1M9 15h1M11 15h1M0 16h1M2 16h1M4 16h1M6 16h1M8 16h1M10 16h1M1 17h1M3 17h1M5 17h1M7 17h1M9 17h1M11 17h1M2 18h1M4 18h1M6 18h1M8 18h1M10 18h1M3 19h1M5 19h1M7 19h1M9 19h1M11 19h1M6 20h1M8 20h1M10 20h1M7 21h1M9 21h1M11 21h1M10 22h1M11 23h1" />
<path stroke="#fce0a8" d="M12 0h1M9 1h1M11 1h1M13 1h1M8 2h1M10 2h1M12 2h1M14 2h1M16 2h1M5 3h1M7 3h1M9 3h1M11 3h1M13 3h1M15 3h1M17 3h1M4 4h1M6 4h1M8 4h1M10 4h1M12 4h1M14 4h1M16 4h1M18 4h1M20 4h1M1 5h1M3 5h1M5 5h1M7 5h1M9 5h1M11 5h1M13 5h1M15 5h1M17 5h1M19 5h1M21 5h1M2 6h1M4 6h1M6 6h1M8 6h1M10 6h1M12 6h1M14 6h1M16 6h1M18 6h1M20 6h1M22 6h1M3 7h1M5 7h1M7 7h1M9 7h1M11 7h1M13 7h1M15 7h1M17 7h1M19 7h1M6 8h1M8 8h1M10 8h1M12 8h1M14 8h1M16 8h1M18 8h1M7 9h1M9 9h1M11 9h1M13 9h1M15 9h1M10 10h1M12 10h1M14 10h1M11 11h1" />
<path stroke="#000000" d="M23 6h1M22 7h1M19 8h1M21 8h1M23 8h1M18 9h1M20 9h1M22 9h1M15 10h1M17 10h1M19 10h1M21 10h1M23 10h1M14 11h1M16 11h1M18 11h1M20 11h1M22 11h1M13 12h1M15 12h1M17 12h1M19 12h1M21 12h1M23 12h1M12 13h1M14 13h1M16 13h1M18 13h1M20 13h1M22 13h1M13 14h1M15 14h1M17 14h1M19 14h1M21 14h1M23 14h1M12 15h1M14 15h1M16 15h1M18 15h1M20 15h1M22 15h1M13 16h1M15 16h1M17 16h1M19 16h1M21 16h1M23 16h1M12 17h1M14 17h1M16 17h1M18 17h1M20 17h1M22 17h1M13 18h1M15 18h1M17 18h1M19 18h1M21 18h1M12 19h1M14 19h1M16 19h1M18 19h1M20 19h1M13 20h1M15 20h1M17 20h1M12 21h1M14 21h1M16 21h1M13 22h1M12 23h1" />
<path stroke="#7c7c7c" d="M0 7h1M2 7h1M21 7h1M23 7h1M1 8h1M3 8h1M20 8h1M22 8h1M0 9h1M2 9h1M4 9h1M6 9h1M17 9h1M19 9h1M21 9h1M23 9h1M1 10h1M3 10h1M5 10h1M7 10h1M16 10h1M18 10h1M20 10h1M22 10h1M0 11h1M2 11h1M4 11h1M6 11h1M8 11h1M10 11h1M13 11h1M15 11h1M17 11h1M19 11h1M21 11h1M23 11h1M1 12h1M3 12h1M5 12h1M7 12h1M9 12h1M11 12h2M14 12h1M16 12h1M18 12h1M20 12h1M22 12h1M0 13h1M2 13h1M4 13h1M6 13h1M8 13h1M10 13h1M13 13h1M15 13h1M17 13h1M19 13h1M21 13h1M23 13h1M1 14h1M3 14h1M5 14h1M7 14h1M9 14h1M11 14h2M14 14h1M16 14h1M18 14h1M20 14h1M22 14h1M0 15h1M2 15h1M4 15h1M6 15h1M8 15h1M10 15h1M13 15h1M15 15h1M17 15h1M19 15h1M21 15h1M23 15h1M1 16h1M3 16h1M5 16h1M7 16h1M9 16h1M11 16h2M14 16h1M16 16h1M18 16h1M20 16h1M22 16h1M0 17h1M2 17h1M4 17h1M6 17h1M8 17h1M10 17h1M13 17h1M15 17h1M17 17h1M19 17h1M21 17h1M23 17h1M1 18h1M3 18h1M5 18h1M7 18h1M9 18h1M11 18h2M14 18h1M16 18h1M18 18h1M20 18h1M22 18h1M4 19h1M6 19h1M8 19h1M10 19h1M13 19h1M15 19h1M17 19h1M19 19h1M5 20h1M7 20h1M9 20h1M11 20h2M14 20h1M16 20h1M18 20h1M8 21h1M10 21h1M13 21h1M15 21h1M9 22h1M11 22h2M14 22h1" />
</svg>