<svg xmlns="http://www.w3.org/2000/svg" viewBox="0 -0.5 16 16" shape-rendering="crispEdges">
<metadata>Made with Pixels to Svg https://codepen.io/shshaw/pen/XbxvNj</metadata>
<path stroke="#bcbcbc" d="M0 0h6M7 0h9M0 1h1M7 1h1M0 2h1M7 2h1M0 3h1M6 3h1M0 4h1M4 4h2M13 4h2M0 5h1M11 5h1M0 6h1M0 7h1M0 8h1M10 8h1M0 9h1M9 9h1M0 10h1M0 11h1M0 12h1M7 12h1M0 13h1M6 13h1M0 14h1M10 14h1M0 15h1" />
<path stroke="#7c7c7c" d="M6 0h1M1 1h5M8 1h7M1 2h5M8 2h4M13 2h2M1 3h3M7 3h6M1 4h3M6 4h5M1 5h9M12 5h3M1 6h14M1 7h14M1 8h8M11 8h4M1 9h7M10 9h5M1 10h8M10 10h5M1 11h6M10 11h5M1 12h5M8 12h1M11 12h4M1 13h5M7 13h3M12 13h3M1 14h9M13 14h2" />
<path stroke="#000000" d="M6 1h1M15 1h1M6 2h1M12 2h1M15 2h1M4 3h2M13 3h3M11 4h2M15 4h1M10 5h1M15 5h1M15 6h1M15 7h1M9 8h1M15 8h1M8 9h1M15 9h1M9 10h1M15 10h1M7 11h3M15 11h1M6 12h1M9 12h2M15 12h1M10 13h2M15 13h1M11 14h2M15 14h1M1 15h15" />
</svg>