<svg xmlns="http://www.w3.org/2000/svg" viewBox="0 -0.5 16 16" shape-rendering="crispEdges">
<metadata>Made with Pixels to Svg https://codepen.io/shshaw/pen/XbxvNj</metadata>
<path stroke="#fce0a8" d="M0 0h16M0 1h15M0 2h2M0 3h2M0 4h2M0 5h2M0 6h2M0 7h2M0 8h2M0 9h2M0 10h2M0 11h2M0 12h2M0 13h2M0 14h1" />
<path stroke="#881400" d="M15 1h1M14 2h2M14 3h2M14 4h2M14 5h2M14 6h2M14 7h2M14 8h2M14 9h2M14 10h2M14 11h2M14 12h2M14 13h2M1 14h15M0 15h16" />
<path stroke="#fca044" d="M2 2h12M2 3h1M2 4h1M2 5h1M2 6h1M2 7h1M2 8h1M2 9h1M2 10h1M2 11h1M2 12h1M2 13h1" />
<path stroke="#e45c10" d="M3 3h11M3 4h11M3 5h11M3 6h11M3 7h11M3 8h11M3 9h11M3 10h11M3 11h11M3 12h11M3 13h11" />
</svg>